<svg width="100" height="28" viewBox="0 0 100 28" fill="none" xmlns="http://www.w3.org/2000/svg">
<path d="M66.6771 14.9545H57.8307C57.8781 16.0138 58.1548 16.7965 58.6608 17.3024C59.1668 17.8084 59.8941 18.0614 60.8428 18.0614C61.491 18.0614 62.0681 17.9033 62.5741 17.587C63.0801 17.255 63.3884 16.8834 63.4991 16.4723H66.4637C66.0052 17.8796 65.2858 18.9231 64.3054 19.603C63.341 20.2671 62.1472 20.5991 60.7242 20.5991C59.7755 20.5991 58.9138 20.4489 58.139 20.1485C57.3643 19.8323 56.7002 19.3895 56.1468 18.8203C55.6092 18.2353 55.1902 17.5475 54.8898 16.757C54.6052 15.9506 54.4629 15.081 54.4629 14.1481C54.4629 13.231 54.6131 12.3772 54.9135 11.5866C55.2139 10.7961 55.6408 10.1083 56.1942 9.52327C56.7476 8.93825 57.4117 8.48762 58.1865 8.1714C58.9612 7.83936 59.8071 7.67334 60.7242 7.67334C61.6887 7.67334 62.5425 7.85517 63.2856 8.21883C64.0446 8.56668 64.6691 9.04893 65.1593 9.66557C65.6652 10.2822 66.0447 10.9937 66.2977 11.8001C66.5665 12.6065 66.7009 13.4603 66.7009 14.3615C66.7009 14.4248 66.693 14.5197 66.6771 14.6461C66.6771 14.7884 66.6771 14.8912 66.6771 14.9545ZM57.8307 12.8199H63.3093C63.1512 11.9345 62.8587 11.2783 62.4318 10.8514C62.0207 10.4245 61.4199 10.2111 60.6293 10.2111C60.1233 10.2111 59.6885 10.298 59.3249 10.4719C58.977 10.6459 58.6924 10.8672 58.4711 11.136C58.2497 11.4048 58.0916 11.6894 57.9967 11.9898C57.9019 12.2744 57.8465 12.5511 57.8307 12.8199Z" fill="#1A1A1A"/>
<path d="M90.9584 14.7137H82.112C82.1594 15.7731 82.4361 16.5558 82.9421 17.0617C83.448 17.5677 84.1753 17.8207 85.124 17.8207C85.7723 17.8207 86.3494 17.6626 86.8554 17.3463C87.3613 17.0143 87.6696 16.6427 87.7803 16.2316H90.7449C90.2864 17.6388 89.567 18.6824 88.5867 19.3623C87.6222 20.0263 86.4285 20.3584 85.0054 20.3584C84.0568 20.3584 83.195 20.2082 82.4203 19.9078C81.6455 19.5915 80.9814 19.1488 80.428 18.5796C79.8905 17.9946 79.4715 17.3068 79.171 16.5162C78.8864 15.7099 78.7441 14.8402 78.7441 13.9074C78.7441 12.9903 78.8943 12.1365 79.1948 11.3459C79.4952 10.5554 79.9221 9.86756 80.4755 9.28254C81.0289 8.69753 81.693 8.2469 82.4677 7.93067C83.2425 7.59864 84.0884 7.43262 85.0054 7.43262C85.9699 7.43262 86.8237 7.61445 87.5669 7.97811C88.3258 8.32596 88.9504 8.8082 89.4405 9.42485C89.9465 10.0415 90.3259 10.753 90.5789 11.5594C90.8477 12.3658 90.9821 13.2196 90.9821 14.1208C90.9821 14.1841 90.9742 14.2789 90.9584 14.4054C90.9584 14.5477 90.9584 14.6505 90.9584 14.7137ZM82.112 12.5792H87.5906C87.4325 11.6938 87.14 11.0376 86.7131 10.6107C86.302 10.1838 85.7011 9.97034 84.9106 9.97034C84.4046 9.97034 83.9698 10.0573 83.6061 10.2312C83.2583 10.4051 82.9737 10.6265 82.7523 10.8953C82.531 11.1641 82.3728 11.4487 82.278 11.7491C82.1831 12.0337 82.1278 12.3104 82.112 12.5792Z" fill="#1A1A1A"/>
<path d="M91.9961 20.0263V7.76466H95.1979V10.0415H95.2453C95.5457 9.28254 96.0675 8.658 96.8106 8.16785C97.5538 7.67769 98.3364 7.43262 99.1586 7.43262C99.4116 7.43262 99.6567 7.47215 99.8939 7.5512V10.6818C99.7516 10.6502 99.5618 10.6265 99.3246 10.6107C99.1033 10.5791 98.8898 10.5633 98.6843 10.5633C97.5301 10.5633 96.6842 10.9269 96.1466 11.6542C95.6248 12.3658 95.3639 13.3144 95.3639 14.5003V20.0263H91.9961Z" fill="#1A1A1A"/>
<path d="M78.7109 7.76562L74.5604 20.0273H70.8131L66.6152 7.76562H70.1491L72.7342 16.1377H72.7817L75.3668 7.76562H78.7109Z" fill="#1A1A1A"/>
<path d="M29.274 3.42939C31.4856 4.02365 33.023 6.0286 33.023 8.31872V19.6694C33.023 21.9579 31.4878 23.9619 29.2782 24.5576L18.268 27.5262C17.117 27.8365 15.9044 27.8365 14.7533 27.5261L3.74467 24.5577C1.53514 23.9619 0 21.958 0 19.6695V8.31862C0 6.02855 1.53728 4.02363 3.7489 3.42933L14.759 0.470715C15.9064 0.162374 17.1149 0.162359 18.2624 0.470673L29.274 3.42939Z" fill="#131212"/>
<ellipse cx="8.91036" cy="13.9989" rx="5.91622" ry="6.56289" fill="#F9F9F9"/>
<ellipse cx="8.91045" cy="13.9985" rx="3.78545" ry="4.19922" fill="#131213"/>
<circle cx="10.1627" cy="13.1514" r="1.2525" fill="#F8F8F9"/>
<ellipse cx="24.1174" cy="13.9989" rx="5.91622" ry="6.56289" fill="#F9F9F9"/>
<ellipse cx="24.1155" cy="13.9985" rx="3.78545" ry="4.19922" fill="#131213"/>
<circle cx="25.3697" cy="13.1514" r="1.2525" fill="#F8F8F9"/>
<path d="M45.5566 7.26709C46.7862 7.26709 47.8148 7.53965 48.6299 8.09717C49.4735 8.65238 49.8984 9.4559 49.8984 10.4858C49.8983 11.2302 49.6406 11.8834 49.1299 12.437C48.6716 12.9337 48.0634 13.3567 47.3125 13.7124L48.9492 15.397C49.1472 15.0315 49.2902 14.6106 49.3721 14.1304L49.3955 13.9897H52.3467L52.3242 14.1792C52.2512 14.7906 52.082 15.3715 51.8193 15.9224L51.8203 15.9233C51.5934 16.4154 51.2924 16.8703 50.9209 17.2896L53.8926 20.1899L54.1885 20.48H49.999L49.9492 20.4292L48.8213 19.272C48.2316 19.7454 47.6031 20.1049 46.9336 20.3452C46.2175 20.6023 45.4245 20.73 44.5566 20.73C43.8617 20.73 43.2009 20.6447 42.5752 20.4741L42.5703 20.4731C41.9587 20.2901 41.4232 20.0323 40.9658 19.6987L40.9648 19.6978C39.9711 18.9647 39.4697 17.9754 39.4697 16.7446C39.4697 15.8634 39.8105 15.0953 40.4795 14.4478C41.0871 13.8597 41.8478 13.3758 42.7568 12.9907C42.3515 12.5549 42.035 12.1541 41.8145 11.7847C41.5566 11.3527 41.4287 10.8701 41.4287 10.3423C41.4288 9.88511 41.5427 9.46301 41.7715 9.07959C41.9974 8.70117 42.3052 8.37492 42.6914 8.10107L42.6943 8.09912C43.0927 7.82722 43.5344 7.62328 44.0186 7.48779C44.5168 7.3405 45.0299 7.26712 45.5566 7.26709ZM44.5986 14.8911C44.0493 15.1052 43.5906 15.3736 43.2197 15.6948C42.8549 16.0114 42.6816 16.3773 42.6816 16.7983C42.6817 17.1996 42.8614 17.5509 43.251 17.8569L43.4072 17.9614C43.7798 18.1902 44.2044 18.3052 44.6846 18.3052C45.1741 18.3051 45.6025 18.2143 45.9736 18.0366L45.9756 18.0356C46.3238 17.8747 46.6616 17.6423 46.9941 17.3423L44.5986 14.8911ZM45.7061 9.29932C45.3722 9.29932 45.0901 9.39495 44.8525 9.5835C44.6201 9.76806 44.5127 9.98827 44.5127 10.2534C44.5127 10.5441 44.5824 10.7966 44.7188 11.0161C44.8806 11.2411 45.126 11.5168 45.46 11.8433C45.5002 11.8818 45.5365 11.9176 45.5674 11.9487C46.0282 11.6908 46.3673 11.4553 46.5889 11.2388C46.8075 11.0135 46.9209 10.7193 46.9209 10.3423C46.9208 10.0655 46.806 9.82538 46.5557 9.61572L46.5527 9.61377C46.3148 9.40397 46.0351 9.29933 45.7061 9.29932Z" fill="#1A1A1A" stroke="#1A1A1A" stroke-width="0.337516"/>
</svg>
